# Blender v2.71 (sub 0) OBJ File: 'road.blend'
# www.blender.org
mtllib road.mtl
o Cylinder
v 0.000000 -0.500000 -3.000000
v 0.000000 0.500000 -3.000000
v 0.294051 -0.500000 -2.985554
v 0.294051 0.500000 -2.985554
v 0.585271 -0.500000 -2.942356
v 0.585271 0.500000 -2.942356
v 0.870854 -0.500000 -2.870821
v 0.870854 0.500000 -2.870821
v 1.148050 -0.500000 -2.771638
v 1.148050 0.500000 -2.771638
v 1.414190 -0.500000 -2.645764
v 1.414190 0.500000 -2.645764
v 1.666711 -0.500000 -2.494409
v 1.666711 0.500000 -2.494409
v 1.903180 -0.500000 -2.319031
v 1.903180 0.500000 -2.319031
v 2.121320 -0.500000 -2.121320
v 2.121320 0.500000 -2.121320
v 2.319031 -0.500000 -1.903180
v 2.319031 0.500000 -1.903180
v 2.494409 -0.500000 -1.666711
v 2.494409 0.500000 -1.666711
v 2.645764 -0.500000 -1.414190
v 2.645764 0.500000 -1.414190
v 2.771638 -0.500000 -1.148050
v 2.771638 0.500000 -1.148050
v 2.870821 -0.500000 -0.870854
v 2.870821 0.500000 -0.870854
v 2.942356 -0.500000 -0.585271
v 2.942356 0.500000 -0.585271
v 2.985554 -0.500000 -0.294051
v 2.985554 0.500000 -0.294051
v 3.000000 -0.500000 0.000000
v 3.000000 0.500000 0.000000
v 2.985554 -0.500000 0.294052
v 2.985554 0.500000 0.294052
v 2.942356 -0.500000 0.585272
v 2.942356 0.500000 0.585272
v 2.870821 -0.500000 0.870855
v 2.870821 0.500000 0.870855
v 2.771638 -0.500000 1.148051
v 2.771638 0.500000 1.148051
v 2.645763 -0.500000 1.414191
v 2.645763 0.500000 1.414191
v 2.494408 -0.500000 1.666712
v 2.494408 0.500000 1.666712
v 2.319031 -0.500000 1.903181
v 2.319031 0.500000 1.903181
v 2.121319 -0.500000 2.121321
v 2.121319 0.500000 2.121321
v 1.903179 -0.500000 2.319032
v 1.903179 0.500000 2.319032
v 1.666709 -0.500000 2.494410
v 1.666709 0.500000 2.494410
v 1.414189 -0.500000 2.645765
v 1.414189 0.500000 2.645765
v 1.148049 -0.500000 2.771639
v 1.148049 0.500000 2.771639
v 0.870852 -0.500000 2.870821
v 0.870852 0.500000 2.870821
v 0.585269 -0.500000 2.942356
v 0.585269 0.500000 2.942356
v 0.294049 -0.500000 2.985554
v 0.294049 0.500000 2.985554
v -0.000002 -0.500000 3.000000
v -0.000002 0.500000 3.000000
v -0.294054 -0.500000 2.985554
v -0.294054 0.500000 2.985554
v -0.585274 -0.500000 2.942355
v -0.585274 0.500000 2.942355
v -0.870857 -0.500000 2.870820
v -0.870857 0.500000 2.870820
v -1.148053 -0.500000 2.771637
v -1.148053 0.500000 2.771637
v -1.414193 -0.500000 2.645762
v -1.414193 0.500000 2.645762
v -1.666713 -0.500000 2.494407
v -1.666713 0.500000 2.494407
v -1.903182 -0.500000 2.319029
v -1.903182 0.500000 2.319029
v -2.121323 -0.500000 2.121318
v -2.121323 0.500000 2.121318
v -2.319033 -0.500000 1.903178
v -2.319033 0.500000 1.903178
v -2.494410 -0.500000 1.666709
v -2.494410 0.500000 1.666709
v -2.645765 -0.500000 1.414189
v -2.645765 0.500000 1.414189
v -2.771639 -0.500000 1.148049
v -2.771639 0.500000 1.148049
v -2.870821 -0.500000 0.870854
v -2.870821 0.500000 0.870854
v -2.942356 -0.500000 0.585271
v -2.942356 0.500000 0.585271
v -2.985554 -0.500000 0.294052
v -2.985554 0.500000 0.294052
v -3.000000 -0.500000 0.000001
v -3.000000 0.500000 0.000001
v -2.985554 -0.500000 -0.294049
v -2.985554 0.500000 -0.294049
v -2.942356 -0.500000 -0.585268
v -2.942356 0.500000 -0.585268
v -2.870822 -0.500000 -0.870851
v -2.870822 0.500000 -0.870851
v -2.771640 -0.500000 -1.148047
v -2.771640 0.500000 -1.148047
v -2.645766 -0.500000 -1.414186
v -2.645766 0.500000 -1.414186
v -2.494412 -0.500000 -1.666707
v -2.494412 0.500000 -1.666707
v -2.319035 -0.500000 -1.903176
v -2.319035 0.500000 -1.903176
v -2.121325 -0.500000 -2.121316
v -2.121325 0.500000 -2.121316
v -1.903185 -0.500000 -2.319027
v -1.903185 0.500000 -2.319027
v -1.666717 -0.500000 -2.494405
v -1.666717 0.500000 -2.494405
v -1.414197 -0.500000 -2.645760
v -1.414197 0.500000 -2.645760
v -1.148058 -0.500000 -2.771635
v -1.148058 0.500000 -2.771635
v -0.870863 -0.500000 -2.870818
v -0.870863 0.500000 -2.870818
v -0.585280 -0.500000 -2.942354
v -0.585280 0.500000 -2.942354
v -0.294062 -0.500000 -2.985553
v -0.294062 0.500000 -2.985553
vt 0.500000 0.750000
vt 0.508563 0.750000
vt 0.508563 0.250000
vt 0.517043 0.750000
vt 0.517043 0.250000
vt 0.525360 0.750000
vt 0.525360 0.250000
vt 0.533432 0.750000
vt 0.533432 0.250000
vt 0.475191 0.750000
vt 0.482941 0.750000
vt 0.482941 0.250000
vt 0.490294 0.750000
vt 0.490294 0.250000
vt 0.497181 0.750000
vt 0.497181 0.250000
vt 0.503533 0.750000
vt 0.503533 0.250000
vt 0.475191 0.250000
vt 0.467119 0.750000
vt 0.467119 0.250000
vt 0.500000 0.250000
vt 0.491437 0.750000
vt 0.491437 0.250000
vt 0.482957 0.750000
vt 0.482957 0.250000
vt 0.474640 0.750000
vt 0.474640 0.250000
vt 0.466568 0.750000
vt 0.466568 0.250000
vt 0.524809 0.750000
vt 0.517059 0.750000
vt 0.517059 0.250000
vt 0.509706 0.750000
vt 0.509706 0.250000
vt 0.502819 0.750000
vt 0.502819 0.250000
vt 0.496467 0.750000
vt 0.496467 0.250000
vt 0.524809 0.250000
vt 0.532881 0.750000
vt 0.532881 0.250000
vn -0.000000 0.000000 -1.000000
vn 0.098000 0.000000 -0.995200
vn 0.195100 0.000000 -0.980800
vn 0.290300 0.000000 -0.956900
vn 0.382700 0.000000 -0.923900
vn 0.471400 0.000000 -0.881900
vn 0.555600 0.000000 -0.831500
vn 0.634400 0.000000 -0.773000
vn 0.707100 0.000000 -0.707100
vn 0.773000 0.000000 -0.634400
vn 0.831500 0.000000 -0.555600
vn 0.881900 0.000000 -0.471400
vn 0.923900 0.000000 -0.382700
vn 0.956900 0.000000 -0.290300
vn 0.980800 0.000000 -0.195100
vn 0.995200 0.000000 -0.098000
vn 1.000000 0.000000 0.000000
vn 0.995200 0.000000 0.098000
vn 0.980800 0.000000 0.195100
vn 0.956900 0.000000 0.290300
vn 0.923900 0.000000 0.382700
vn 0.881900 0.000000 0.471400
vn 0.831500 0.000000 0.555600
vn 0.773000 0.000000 0.634400
vn 0.707100 0.000000 0.707100
vn 0.634400 0.000000 0.773000
vn 0.555600 0.000000 0.831500
vn 0.471400 0.000000 0.881900
vn 0.382700 0.000000 0.923900
vn 0.290300 0.000000 0.956900
vn 0.195100 0.000000 0.980800
vn 0.098000 0.000000 0.995200
vn -0.000000 0.000000 1.000000
vn -0.098000 0.000000 0.995200
vn -0.195100 0.000000 0.980800
vn -0.290300 0.000000 0.956900
vn -0.382700 0.000000 0.923900
vn -0.471400 0.000000 0.881900
vn -0.555600 0.000000 0.831500
vn -0.634400 0.000000 0.773000
vn -0.707100 0.000000 0.707100
vn -0.773000 0.000000 0.634400
vn -0.831500 0.000000 0.555600
vn -0.881900 0.000000 0.471400
vn -0.923900 0.000000 0.382700
vn -0.956900 0.000000 0.290300
vn -0.980800 0.000000 0.195100
vn -0.995200 0.000000 0.098000
vn -1.000000 0.000000 -0.000000
vn -0.995200 0.000000 -0.098000
vn -0.980800 0.000000 -0.195100
vn -0.956900 0.000000 -0.290300
vn -0.923900 0.000000 -0.382700
vn -0.881900 0.000000 -0.471400
vn -0.831500 0.000000 -0.555600
vn -0.773000 0.000000 -0.634400
vn -0.707100 0.000000 -0.707100
vn -0.634400 0.000000 -0.773000
vn -0.555600 0.000000 -0.831500
vn -0.471400 0.000000 -0.881900
vn -0.382700 0.000000 -0.923900
vn -0.290300 0.000000 -0.956900
vn -0.195100 0.000000 -0.980800
vn -0.098000 0.000000 -0.995200
usemtl Material.002
s 1
f 2/1/1 4/2/2 3/3/2
f 4/2/2 6/4/3 5/5/3
f 6/4/3 8/6/4 7/7/4
f 8/6/4 10/8/5 9/9/5
f 10/10/5 12/11/6 11/12/6
f 12/11/6 14/13/7 13/14/7
f 14/13/7 16/15/8 15/16/8
f 16/15/8 18/17/9 17/18/9
f 18/17/9 20/15/10 19/16/10
f 20/15/10 22/13/11 21/14/11
f 22/13/11 24/11/12 23/12/12
f 24/11/12 26/10/13 25/19/13
f 26/10/13 28/20/14 27/21/14
f 28/6/14 30/4/15 29/5/15
f 30/4/15 32/2/16 31/3/16
f 32/2/16 34/1/17 33/22/17
f 34/1/17 36/23/18 35/24/18
f 36/23/18 38/25/19 37/26/19
f 38/25/19 40/27/20 39/28/20
f 40/27/20 42/29/21 41/30/21
f 42/31/21 44/32/22 43/33/22
f 44/32/22 46/34/23 45/35/23
f 46/34/23 48/36/24 47/37/24
f 48/36/24 50/38/25 49/39/25
f 50/17/25 52/15/26 51/16/26
f 52/15/26 54/13/27 53/14/27
f 54/13/27 56/11/28 55/12/28
f 56/11/28 58/10/29 57/19/29
f 58/10/29 60/20/30 59/21/30
f 60/6/30 62/4/31 61/5/31
f 61/5/31 62/4/31 64/2/32
f 64/2/32 66/1/33 65/22/33
f 66/1/33 68/23/34 67/24/34
f 68/23/34 70/25/35 69/26/35
f 70/25/35 72/27/36 71/28/36
f 72/27/36 74/29/37 73/30/37
f 74/31/37 76/32/38 75/33/38
f 76/32/38 78/34/39 77/35/39
f 78/34/39 80/36/40 79/37/40
f 80/36/40 82/38/41 81/39/41
f 82/38/41 84/36/42 83/37/42
f 84/36/42 86/34/43 85/35/43
f 86/34/43 88/32/44 87/33/44
f 88/32/44 90/31/45 89/40/45
f 90/31/45 92/41/46 91/42/46
f 92/27/46 94/25/47 93/26/47
f 93/26/47 94/25/47 96/23/48
f 96/23/48 98/1/49 97/22/49
f 98/1/49 100/2/50 99/3/50
f 99/3/50 100/2/50 102/4/51
f 102/4/51 104/6/52 103/7/52
f 104/6/52 106/8/53 105/9/53
f 106/10/53 108/11/54 107/12/54
f 108/11/54 110/13/55 109/14/55
f 110/13/55 112/15/56 111/16/56
f 112/15/56 114/17/57 113/18/57
f 114/38/57 116/36/58 115/37/58
f 116/36/58 118/34/59 117/35/59
f 118/34/59 120/32/60 119/33/60
f 120/32/60 122/31/61 121/40/61
f 122/31/61 124/41/62 123/42/62
f 124/27/62 126/25/63 125/26/63
f 128/23/64 2/1/1 1/22/1
f 126/25/63 128/23/64 127/24/64
f 1/22/1 2/1/1 3/3/2
f 3/3/2 4/2/2 5/5/3
f 5/5/3 6/4/3 7/7/4
f 7/7/4 8/6/4 9/9/5
f 9/19/5 10/10/5 11/12/6
f 11/12/6 12/11/6 13/14/7
f 13/14/7 14/13/7 15/16/8
f 15/16/8 16/15/8 17/18/9
f 17/18/9 18/17/9 19/16/10
f 19/16/10 20/15/10 21/14/11
f 21/14/11 22/13/11 23/12/12
f 23/12/12 24/11/12 25/19/13
f 25/19/13 26/10/13 27/21/14
f 27/7/14 28/6/14 29/5/15
f 29/5/15 30/4/15 31/3/16
f 31/3/16 32/2/16 33/22/17
f 33/22/17 34/1/17 35/24/18
f 35/24/18 36/23/18 37/26/19
f 37/26/19 38/25/19 39/28/20
f 39/28/20 40/27/20 41/30/21
f 41/40/21 42/31/21 43/33/22
f 43/33/22 44/32/22 45/35/23
f 45/35/23 46/34/23 47/37/24
f 47/37/24 48/36/24 49/39/25
f 49/18/25 50/17/25 51/16/26
f 51/16/26 52/15/26 53/14/27
f 53/14/27 54/13/27 55/12/28
f 55/12/28 56/11/28 57/19/29
f 57/19/29 58/10/29 59/21/30
f 59/7/30 60/6/30 61/5/31
f 63/3/32 61/5/31 64/2/32
f 63/3/32 64/2/32 65/22/33
f 65/22/33 66/1/33 67/24/34
f 67/24/34 68/23/34 69/26/35
f 69/26/35 70/25/35 71/28/36
f 71/28/36 72/27/36 73/30/37
f 73/40/37 74/31/37 75/33/38
f 75/33/38 76/32/38 77/35/39
f 77/35/39 78/34/39 79/37/40
f 79/37/40 80/36/40 81/39/41
f 81/39/41 82/38/41 83/37/42
f 83/37/42 84/36/42 85/35/43
f 85/35/43 86/34/43 87/33/44
f 87/33/44 88/32/44 89/40/45
f 89/40/45 90/31/45 91/42/46
f 91/28/46 92/27/46 93/26/47
f 95/24/48 93/26/47 96/23/48
f 95/24/48 96/23/48 97/22/49
f 97/22/49 98/1/49 99/3/50
f 101/5/51 99/3/50 102/4/51
f 101/5/51 102/4/51 103/7/52
f 103/7/52 104/6/52 105/9/53
f 105/19/53 106/10/53 107/12/54
f 107/12/54 108/11/54 109/14/55
f 109/14/55 110/13/55 111/16/56
f 111/16/56 112/15/56 113/18/57
f 113/39/57 114/38/57 115/37/58
f 115/37/58 116/36/58 117/35/59
f 117/35/59 118/34/59 119/33/60
f 119/33/60 120/32/60 121/40/61
f 121/40/61 122/31/61 123/42/62
f 123/28/62 124/27/62 125/26/63
f 127/24/64 128/23/64 1/22/1
f 125/26/63 126/25/63 127/24/64
